<svg xmlns="http://www.w3.org/2000/svg" viewBox="0 0 1080 1080"><defs><style>.cls-1{isolation:isolate;}.cls-2{fill:#fddbdb;}.cls-14,.cls-17,.cls-3{fill:none;}.cls-10,.cls-3,.cls-6,.cls-7,.cls-9{stroke:#e00;}.cls-13,.cls-14,.cls-15,.cls-16,.cls-17,.cls-3,.cls-6,.cls-7{stroke-linecap:round;stroke-linejoin:round;}.cls-10,.cls-13,.cls-14,.cls-15,.cls-16,.cls-17,.cls-3,.cls-6,.cls-7,.cls-9{stroke-width:2px;}.cls-4,.cls-5,.cls-8{fill:#fab6b6;}.cls-5{opacity:0.5;}.cls-5,.cls-8{mix-blend-mode:multiply;}.cls-11,.cls-15,.cls-16,.cls-6,.cls-9{fill:#fff;}.cls-10,.cls-12,.cls-7{fill:#e00;}.cls-8{opacity:0.3;}.cls-10,.cls-9{stroke-miterlimit:10;}.cls-13,.cls-16,.cls-17{stroke:#000;}.cls-14,.cls-15{stroke:#fff;}</style></defs><g class="cls-1"><g id="_03_API" data-name="03_API"><path class="cls-2" d="M230.08,426.72c-7.37-39.2,0-86.17,20.79-120.06,20.46-33.29,56-52.49,93.83-58.72,27.76-4.56,56.76-3.71,83.64,5.05,29.41,9.58,52.09,30.08,77.28,47.13,37.61,25.47,84.65,43.09,130,29.74,37.37-11,68.56-31.64,102.56-49.58,52-27.41,137.59-31.45,180,15.84,31.06,34.65,26.15,92.76,3.07,130.18L787.07,643.83c-1.16,1.88-8.73,4.16-10.73,5.38A100.57,100.57,0,0,0,752,670.68c-56.76,68-8.9,195.57-116.69,224.46-37,9.93-78.13.62-113.19-12.57C430.64,848.16,334.71,789,283.8,702.9c-.77-1.29-2.43-3.24-2.71-4.73Z"/><path class="cls-3" d="M645.37,551.58a105,105,0,0,0-5-54.52"/><rect class="cls-4" x="494.5" y="230.5" width="81.89" height="140.38" rx="2.44"/><rect class="cls-5" x="494.5" y="230.5" width="81.89" height="140.38" rx="2.44"/><rect class="cls-6" x="313.75" y="723.27" width="37.58" height="25.32"/><rect class="cls-7" x="239.42" y="598.46" width="186.24" height="129.7" rx="3.77"/><rect class="cls-6" x="247.49" y="606.12" width="170.11" height="113.55"/><rect class="cls-6" x="293.93" y="744.33" width="77.21" height="8.5" rx="0.72"/><line class="cls-3" x1="239.42" y1="752.97" x2="425.66" y2="752.97"/><rect class="cls-4" x="126.57" y="426.31" width="235.61" height="235.61"/><rect class="cls-8" x="126.57" y="426.31" width="235.61" height="235.61"/><rect x="238.4" y="598.46" width="123.79" height="63.46"/><rect class="cls-7" x="660.26" y="363.01" width="186.24" height="129.7" rx="3.77"/><rect class="cls-6" x="668.33" y="370.66" width="170.11" height="113.55"/><rect class="cls-6" x="631.08" y="492.71" width="244.61" height="10.3"/><rect class="cls-4" x="700.84" y="426.07" width="235.61" height="235.61"/><rect class="cls-8" x="700.84" y="426.07" width="235.61" height="235.61"/><rect x="700.84" y="426.07" width="225.68" height="77.92"/><rect class="cls-9" x="711.94" y="414.97" width="235.61" height="235.61"/><rect class="cls-10" x="711.94" y="414.97" width="235.61" height="44.03"/><circle class="cls-11" cx="903.95" cy="437.27" r="6"/><circle class="cls-11" cx="927.26" cy="437.27" r="6"/><path class="cls-12" d="M229,269.45h-7.62a11.3,11.3,0,0,1-1.91,2.64,11.75,11.75,0,0,1-2.68,2.07,13.14,13.14,0,0,1-3.35,1.36,15.1,15.1,0,0,1-3.95.49v6.13a15.89,15.89,0,0,0,3.71-.44,16.75,16.75,0,0,0,3.35-1.19,12,12,0,0,0,2.69-1.76,6.65,6.65,0,0,0,1.71-2.17v25.53H209.75v6H238.2v-6H229Z"/><path class="cls-12" d="M302.63,302.11v6h28.45v-6h-9.25V269.45h-7.62a11.3,11.3,0,0,1-1.91,2.64,11.75,11.75,0,0,1-2.68,2.07,13.14,13.14,0,0,1-3.35,1.36,15.1,15.1,0,0,1-3.95.49v6.13a15.89,15.89,0,0,0,3.71-.44,16.75,16.75,0,0,0,3.35-1.19,12,12,0,0,0,2.69-1.76,6.65,6.65,0,0,0,1.71-2.17v25.53Z"/><path class="cls-12" d="M279,272.46a10.1,10.1,0,0,0-4.38-3.24,15.59,15.59,0,0,0-5.49-.94,16.62,16.62,0,0,0-5.74.94,10.16,10.16,0,0,0-4.46,3.24,16.27,16.27,0,0,0-2.88,6.13,38.11,38.11,0,0,0-1,9.6,35.8,35.8,0,0,0,1,9.29,17.2,17.2,0,0,0,2.86,6.16,10.48,10.48,0,0,0,4.38,3.41,15.36,15.36,0,0,0,11.19,0,11.06,11.06,0,0,0,4.44-3.42,17.41,17.41,0,0,0,2.94-6.16,34.77,34.77,0,0,0,1.06-9.27,37.07,37.07,0,0,0-1.05-9.6A16.58,16.58,0,0,0,279,272.46Zm-4.47,22.17a15.28,15.28,0,0,1-1,4.2,4.8,4.8,0,0,1-1.84,2.26,5.09,5.09,0,0,1-2.69.68,5.21,5.21,0,0,1-2.75-.68,4.64,4.64,0,0,1-1.81-2.26,15.41,15.41,0,0,1-1-4.2,55,55,0,0,1-.31-6.44,58.94,58.94,0,0,1,.3-6.52,14.54,14.54,0,0,1,1-4.2,4.61,4.61,0,0,1,1.85-2.23,5.59,5.59,0,0,1,2.83-.66,5.21,5.21,0,0,1,2.68.64,4.55,4.55,0,0,1,1.79,2.22,15.2,15.2,0,0,1,1,4.19,56.34,56.34,0,0,1,.31,6.56A52.44,52.44,0,0,1,274.5,294.63Z"/><path class="cls-12" d="M279,327.41a10.1,10.1,0,0,0-4.38-3.24,15.59,15.59,0,0,0-5.49-.94,16.62,16.62,0,0,0-5.74.94,10.16,10.16,0,0,0-4.46,3.24,16.27,16.27,0,0,0-2.88,6.13,38.11,38.11,0,0,0-1,9.6,35.83,35.83,0,0,0,1,9.3,17.36,17.36,0,0,0,2.86,6.16,10.65,10.65,0,0,0,4.38,3.41,14.75,14.75,0,0,0,5.59,1,14.44,14.44,0,0,0,5.6-1.06,11,11,0,0,0,4.44-3.42,17.41,17.41,0,0,0,2.94-6.16,34.77,34.77,0,0,0,1.06-9.27,37.07,37.07,0,0,0-1.05-9.6A16.58,16.58,0,0,0,279,327.41Zm-4.47,22.18a15.2,15.2,0,0,1-1,4.19,4.88,4.88,0,0,1-1.84,2.27,5.09,5.09,0,0,1-2.69.67,5.21,5.21,0,0,1-2.75-.67,4.72,4.72,0,0,1-1.81-2.27,15.33,15.33,0,0,1-1-4.19,55.35,55.35,0,0,1-.31-6.45,58.94,58.94,0,0,1,.3-6.52,14.55,14.55,0,0,1,1-4.19,4.63,4.63,0,0,1,1.85-2.24,5.59,5.59,0,0,1,2.83-.66,5.22,5.22,0,0,1,2.68.65,4.55,4.55,0,0,1,1.79,2.22,15.12,15.12,0,0,1,1,4.18,56.57,56.57,0,0,1,.31,6.56A52.73,52.73,0,0,1,274.5,349.59Z"/><path class="cls-12" d="M330.52,333.54a16.74,16.74,0,0,0-2.89-6.13,10.13,10.13,0,0,0-4.39-3.24,15.58,15.58,0,0,0-5.48-.94,16.71,16.71,0,0,0-5.75.94,10.13,10.13,0,0,0-4.45,3.24,16.27,16.27,0,0,0-2.88,6.13,38.11,38.11,0,0,0-1,9.6,36.31,36.31,0,0,0,1,9.3,17.54,17.54,0,0,0,2.87,6.16,10.65,10.65,0,0,0,4.38,3.41,14.72,14.72,0,0,0,5.59,1,14.47,14.47,0,0,0,5.6-1.06,11,11,0,0,0,4.44-3.42,17.41,17.41,0,0,0,2.94-6.16,35.19,35.19,0,0,0,1.06-9.27A37.07,37.07,0,0,0,330.52,333.54Zm-7.36,16a14.82,14.82,0,0,1-1.05,4.19,4.92,4.92,0,0,1-1.83,2.27,5.11,5.11,0,0,1-2.69.67,5.21,5.21,0,0,1-2.75-.67,4.72,4.72,0,0,1-1.81-2.27,15.33,15.33,0,0,1-1-4.19,55.08,55.08,0,0,1-.32-6.45,58.94,58.94,0,0,1,.3-6.52,14.52,14.52,0,0,1,1-4.19,4.62,4.62,0,0,1,1.84-2.24,5.63,5.63,0,0,1,2.84-.66,5.24,5.24,0,0,1,2.68.65,4.61,4.61,0,0,1,1.79,2.22,15.16,15.16,0,0,1,1,4.18,56.28,56.28,0,0,1,.32,6.56A52.73,52.73,0,0,1,323.16,349.59Z"/><path class="cls-12" d="M758.77,743.46v-6h11.14V711.94a6.72,6.72,0,0,1-1.7,2.16,12.29,12.29,0,0,1-2.69,1.77,16.84,16.84,0,0,1-3.36,1.18,15.38,15.38,0,0,1-3.71.45v-6.13a15.62,15.62,0,0,0,4-.49,13.68,13.68,0,0,0,3.35-1.36,12.24,12.24,0,0,0,2.68-2.08,11.2,11.2,0,0,0,1.9-2.63H778v32.66h9.26v6Z"/><path class="cls-12" d="M758.77,797.82v-6h11.14V766.31a6.83,6.83,0,0,1-1.7,2.16,12.26,12.26,0,0,1-2.69,1.76,16.85,16.85,0,0,1-3.36,1.19,15.37,15.37,0,0,1-3.71.44v-6.13a15.63,15.63,0,0,0,4-.48,14.08,14.08,0,0,0,3.35-1.36,12.56,12.56,0,0,0,2.68-2.08,11.05,11.05,0,0,0,1.9-2.64H778v32.66h9.26v6Z"/><path class="cls-12" d="M802.6,797.82v-6h11.14V766.31a6.83,6.83,0,0,1-1.7,2.16,12.33,12.33,0,0,1-2.7,1.76,16.75,16.75,0,0,1-3.35,1.19,15.37,15.37,0,0,1-3.71.44v-6.13a15.55,15.55,0,0,0,4-.48,14.16,14.16,0,0,0,3.36-1.36,12.56,12.56,0,0,0,2.68-2.08,11.34,11.34,0,0,0,1.9-2.64h7.62v32.66h9.26v6Z"/><path class="cls-12" d="M739,723.54a34.77,34.77,0,0,1-1.06,9.27,17.15,17.15,0,0,1-2.93,6.16,11,11,0,0,1-4.44,3.43,14.67,14.67,0,0,1-5.61,1.06,14.52,14.52,0,0,1-5.58-1.05A10.65,10.65,0,0,1,715,739a17.54,17.54,0,0,1-2.86-6.16,35.87,35.87,0,0,1-1-9.3,38,38,0,0,1,1-9.59,16.16,16.16,0,0,1,2.87-6.14,10.27,10.27,0,0,1,4.46-3.23,16.65,16.65,0,0,1,5.74-1,15.6,15.6,0,0,1,5.49,1,10.16,10.16,0,0,1,4.38,3.23A16.64,16.64,0,0,1,738,714,37.42,37.42,0,0,1,739,723.54Zm-8.08,0a56.57,56.57,0,0,0-.31-6.56,15.53,15.53,0,0,0-1-4.18,4.61,4.61,0,0,0-1.79-2.22,5.24,5.24,0,0,0-2.68-.65,5.6,5.6,0,0,0-2.84.66,4.69,4.69,0,0,0-1.85,2.24,14.54,14.54,0,0,0-1,4.2,58.75,58.75,0,0,0-.3,6.51,55.35,55.35,0,0,0,.31,6.45,15.38,15.38,0,0,0,1,4.2,4.73,4.73,0,0,0,1.8,2.26,5.24,5.24,0,0,0,2.75.67,5.15,5.15,0,0,0,2.7-.67,4.89,4.89,0,0,0,1.83-2.26,14.93,14.93,0,0,0,1-4.2A52.73,52.73,0,0,0,731,723.54Z"/><path class="cls-12" d="M830.62,723.54a35.19,35.19,0,0,1-1.06,9.27,17.33,17.33,0,0,1-2.94,6.16,11,11,0,0,1-4.44,3.43,15.36,15.36,0,0,1-11.19,0,10.56,10.56,0,0,1-4.38-3.41,17.37,17.37,0,0,1-2.87-6.16,35.87,35.87,0,0,1-1-9.3,38,38,0,0,1,1-9.59,16.32,16.32,0,0,1,2.88-6.14,10.18,10.18,0,0,1,4.45-3.23,16.71,16.71,0,0,1,5.75-1,15.58,15.58,0,0,1,5.48,1,10.25,10.25,0,0,1,4.39,3.23,16.79,16.79,0,0,1,2.89,6.14A36.93,36.93,0,0,1,830.62,723.54Zm-8.08,0a56.28,56.28,0,0,0-.32-6.56,15.16,15.16,0,0,0-1-4.18,4.61,4.61,0,0,0-1.79-2.22,5.24,5.24,0,0,0-2.68-.65,5.63,5.63,0,0,0-2.84.66,4.69,4.69,0,0,0-1.85,2.24,14.88,14.88,0,0,0-1,4.2,58.75,58.75,0,0,0-.3,6.51,55.08,55.08,0,0,0,.32,6.45,15.41,15.41,0,0,0,1,4.2,4.73,4.73,0,0,0,1.8,2.26,5.26,5.26,0,0,0,2.75.67,5.15,5.15,0,0,0,2.7-.67,4.89,4.89,0,0,0,1.83-2.26,14.9,14.9,0,0,0,1.05-4.2A52.73,52.73,0,0,0,822.54,723.54Z"/><rect class="cls-4" x="494.48" y="710.35" width="81.89" height="140.38" rx="2.44"/><rect class="cls-5" x="494.48" y="710.35" width="81.89" height="140.38" rx="2.44"/><rect class="cls-13" x="501.59" y="223.41" width="81.89" height="140.38" rx="2.44"/><circle class="cls-11" cx="542.54" cy="235.86" r="2.97"/><rect class="cls-13" x="501.59" y="703.23" width="81.89" height="140.38" rx="2.44"/><circle class="cls-11" cx="542.54" cy="715.68" r="2.97"/><rect class="cls-7" x="757.07" y="501.55" width="161.46" height="67.44"/><line class="cls-3" x1="740.97" y1="477.29" x2="740.97" y2="616.66"/><line class="cls-3" x1="757.07" y1="478.17" x2="778.14" y2="478.17"/><line class="cls-3" x1="790.34" y1="478.17" x2="857.38" y2="478.17"/><line class="cls-3" x1="757.07" y1="615.35" x2="792.92" y2="615.35"/><line class="cls-3" x1="805.24" y1="615.35" x2="842.17" y2="615.35"/><line class="cls-3" x1="757.07" y1="591.97" x2="918.53" y2="591.97"/><rect class="cls-9" x="137.92" y="414.97" width="235.61" height="235.61"/><rect class="cls-7" x="137.92" y="414.97" width="235.61" height="44.03"/><line class="cls-14" x1="158.7" y1="437.27" x2="289.24" y2="437.27"/><line class="cls-14" x1="740.98" y1="437.27" x2="871.51" y2="437.27"/><circle class="cls-11" cx="329.93" cy="437.27" r="6"/><circle class="cls-11" cx="353.24" cy="437.27" r="6"/><rect class="cls-7" x="174.48" y="501.55" width="161.46" height="67.44"/><line class="cls-3" x1="158.38" y1="477.29" x2="158.38" y2="616.66"/><line class="cls-3" x1="174.48" y1="478.17" x2="210.33" y2="478.17"/><line class="cls-3" x1="222.66" y1="478.17" x2="258.51" y2="478.17"/><line class="cls-3" x1="174.48" y1="615.35" x2="210.33" y2="615.35"/><line class="cls-3" x1="222.66" y1="615.35" x2="258.51" y2="615.35"/><line class="cls-3" x1="174.48" y1="591.97" x2="274.8" y2="591.97"/><line class="cls-3" x1="286.68" y1="591.97" x2="312.16" y2="591.97"/><rect class="cls-15" x="507.12" y="725.5" width="70.83" height="95.85"/><path class="cls-11" d="M552.92,835.32H532.16a2.84,2.84,0,1,1,0-5.68h20.76a2.84,2.84,0,0,1,0,5.68Z"/><line class="cls-3" x1="536.52" y1="792.52" x2="566.74" y2="792.52"/><line class="cls-3" x1="518.34" y1="792.52" x2="527.82" y2="792.52"/><line class="cls-3" x1="518.34" y1="753.67" x2="566.74" y2="753.67"/><rect class="cls-7" x="518.34" y="766.87" width="48.41" height="12.44"/><rect class="cls-15" x="507.12" y="245.68" width="70.83" height="95.85"/><path class="cls-11" d="M552.92,355.5H532.16a2.84,2.84,0,1,1,0-5.68h20.76a2.84,2.84,0,0,1,0,5.68Z"/><line class="cls-3" x1="536.52" y1="274.18" x2="566.74" y2="274.18"/><line class="cls-3" x1="518.34" y1="274.18" x2="527.82" y2="274.18"/><line class="cls-3" x1="518.34" y1="313.03" x2="566.74" y2="313.03"/><rect class="cls-7" x="518.34" y="287.38" width="48.41" height="12.44"/><rect class="cls-15" x="514.97" y="522.78" width="55.51" height="21.12"/><circle class="cls-16" cx="542.54" cy="533.51" r="56.23"/><circle class="cls-3" cx="542.54" cy="533.51" r="82.14"/><path class="cls-3" d="M438.46,533.51a103.57,103.57,0,0,0,16.48,56.23"/><path class="cls-3" d="M542.54,429.43A104.13,104.13,0,0,0,446.63,493"/><line class="cls-3" x1="542.73" y1="507.34" x2="542.73" y2="560.47"/><line class="cls-6" x1="524.64" y1="507.34" x2="524.64" y2="560.47"/><rect class="cls-6" x="519.45" y="497.15" width="10.39" height="10.39"/><rect class="cls-6" x="519.45" y="560.47" width="10.39" height="10.39"/><polygon class="cls-6" points="542.73 497.32 536.83 507.54 548.63 507.54 542.73 497.32"/><polygon class="cls-3" points="542.73 570.68 536.83 560.47 548.63 560.47 542.73 570.68"/><line class="cls-6" x1="560.81" y1="507.34" x2="560.81" y2="560.47"/><circle class="cls-6" cx="560.81" cy="502.43" r="5.36"/><circle class="cls-6" cx="560.81" cy="565.58" r="5.36"/><path class="cls-3" d="M599.16,446.16a103.62,103.62,0,0,0-56.62-16.73"/><path class="cls-3" d="M519.45,635a104.23,104.23,0,0,0,110.64-45.24"/><rect class="cls-7" x="514.97" y="522.78" width="55.51" height="21.12"/><line class="cls-17" x1="542.54" y1="477.29" x2="542.54" y2="400.81"/><circle class="cls-13" cx="542.54" cy="389.11" r="11.7"/><line class="cls-17" x1="542.54" y1="589.74" x2="542.54" y2="666.22"/><circle class="cls-13" cx="542.54" cy="677.92" r="11.7"/><line class="cls-17" x1="599.16" y1="533.51" x2="733.5" y2="533.51"/><circle class="cls-16" cx="749.53" cy="533.51" r="16.03"/><line class="cls-17" x1="486.31" y1="533.51" x2="351.97" y2="533.51"/><circle class="cls-16" cx="335.94" cy="533.51" r="16.03"/></g></g></svg>