<svg id="fb6b12c3-f889-405d-ba83-f307a74c0ae2" data-name="Logos" xmlns="http://www.w3.org/2000/svg" viewBox="0 0 1128.99 350">
  <defs>
    <style>
      .fd8f88d9-ecb6-4f33-bf8c-24f15806ba51 {
        fill: #e00;
      }
    </style>
  </defs>
  <g>
    <g>
      <path d="M263.39,220.68c-21.22,0-37.86-16.53-37.86-37.54s16.64-37.55,37.86-37.55,38,16.54,38,37.55S284.6,220.68,263.39,220.68Zm0-65c-15.08,0-26.73,11.86-26.73,27.46s11.65,27.45,26.73,27.45,26.83-12,26.83-27.45S278.57,155.68,263.39,155.68Z"/>
      <path d="M311.74,166.6H322v5.1a24.14,24.14,0,0,1,16.22-5.93c15,0,26.73,12,26.73,27.25s-11.75,27.35-26.93,27.35a26.75,26.75,0,0,1-15.92-5.2v25.9h-10.4Zm10.4,14.56v23.92c3.33,3.85,8.84,6.24,14.77,6.24,10.2,0,17.89-7.8,17.89-18.2s-7.8-18.3-17.89-18.3C330.88,174.82,325.58,177.1,322.14,181.16Z"/>
      <path d="M400.46,220.47c-15.6,0-27.77-12-27.77-27.45,0-15.29,11.65-27.25,26.52-27.25,14.56,0,25.58,12.06,25.58,27.66v3H383a17.86,17.86,0,0,0,17.89,15.18A20.56,20.56,0,0,0,414.29,207l6.66,6.56A31.61,31.61,0,0,1,400.46,220.47Zm-17.37-31.82H414.5c-1.56-8.11-7.8-14.15-15.5-14.15C391,174.5,384.65,180.23,383.09,188.65Z"/>
      <path d="M434.67,166.6h10.4v5.3A21.8,21.8,0,0,1,461,165.56c12.17,0,20.7,8.42,20.7,20.7v33.28h-10.4V188c0-8.32-5.1-13.42-13.1-13.42a15,15,0,0,0-13.11,6.86v38.07h-10.4Z"/>
      <path d="M495,199.78c7.9,7.69,16,11.44,25.06,11.44,10.51,0,17.68-5,17.68-12.17,0-6.45-4.16-9.67-14.76-11.44l-12.17-2c-13.31-2.18-19.87-8.42-19.87-18.93,0-12.68,10.61-20.9,26.84-20.9a48.88,48.88,0,0,1,29.33,9.88l-6,8.32c-7.9-6-15.7-8.94-23.81-8.94-9.47,0-15.81,4.36-15.81,10.81,0,5.93,3.64,8.74,13,10.3L526.19,178c15.39,2.5,22.36,8.84,22.36,20.18,0,13.41-11.65,22.36-29,22.36a43.85,43.85,0,0,1-31.2-13.11Z"/>
      <path d="M557.39,146.74l10.4-2.29V171.9a21.8,21.8,0,0,1,15.91-6.34c12.17,0,20.7,8.42,20.7,20.7v33.28H594V188c0-8.32-5.1-13.42-13.11-13.42a15,15,0,0,0-13.1,6.86v38.07h-10.4Z"/>
      <path d="M615.21,151.62a6.39,6.39,0,0,1,6.34-6.44,6.45,6.45,0,1,1,0,12.89A6.39,6.39,0,0,1,615.21,151.62Zm11.55,67.92h-10.4V166.6h10.4Z"/>
      <path d="M646.93,166.6v-8c0-11,6.34-17.05,18-17.05a27.45,27.45,0,0,1,7.49.93v9.05a20.77,20.77,0,0,0-6.55-.94c-5.72,0-8.53,2.6-8.53,8.22v7.8h15.08v8.74H657.33v44.2h-10.4v-44.2H634.66V166.6Z"/>
      <path d="M688.22,175.34H677V166.6h11.24V153.08l10.29-2.5v16h15.6v8.74h-15.6V204c0,5.41,2.19,7.39,7.8,7.39a20.64,20.64,0,0,0,7.6-1.25v8.73a34.37,34.37,0,0,1-9.88,1.56c-10.3,0-15.81-4.88-15.81-14Z"/>
      <path d="M744.9,199.78c7.9,7.69,16,11.44,25.06,11.44,10.5,0,17.68-5,17.68-12.17,0-6.45-4.16-9.67-14.77-11.44l-12.17-2c-13.31-2.18-19.86-8.42-19.86-18.93,0-12.68,10.61-20.9,26.83-20.9A48.86,48.86,0,0,1,797,155.68L791,164c-7.91-6-15.71-8.94-23.82-8.94-9.46,0-15.81,4.36-15.81,10.81,0,5.93,3.64,8.74,13,10.3L776.1,178c15.39,2.5,22.36,8.84,22.36,20.18,0,13.41-11.65,22.36-29,22.36a43.83,43.83,0,0,1-31.2-13.11Z"/>
      <path d="M812.08,175.34H800.85V166.6h11.23V153.08l10.3-2.5v16H838v8.74h-15.6V204c0,5.41,2.18,7.39,7.8,7.39a20.55,20.55,0,0,0,7.59-1.25v8.73a34.32,34.32,0,0,1-9.88,1.56c-10.3,0-15.81-4.88-15.81-14Z"/>
      <path d="M845.67,166.6h10.4v6.76a16.55,16.55,0,0,1,14.56-7.9,13.17,13.17,0,0,1,5.31.83v9.36a17.81,17.81,0,0,0-6.14-1.15c-6.14,0-11,3.33-13.73,9.68v35.36h-10.4Z"/>
      <path d="M906.41,220.47c-15.6,0-27.77-12-27.77-27.45,0-15.29,11.65-27.25,26.52-27.25,14.56,0,25.58,12.06,25.58,27.66v3H888.93a17.86,17.86,0,0,0,17.89,15.18A20.56,20.56,0,0,0,920.24,207l6.66,6.56A31.61,31.61,0,0,1,906.41,220.47ZM889,188.65h31.41c-1.56-8.11-7.8-14.15-15.5-14.15C896.94,174.5,890.6,180.23,889,188.65Z"/>
      <path d="M937.29,204.35c0-10,8.12-16.12,21.43-16.12a37.27,37.27,0,0,1,14.46,2.92v-5.62c0-7.49-4.48-11.23-12.9-11.23-4.89,0-9.88,1.35-16.43,4.47L940,171c7.9-3.75,14.77-5.41,21.74-5.41,13.72,0,21.63,6.76,21.63,18.93v35H973.18V215a25.1,25.1,0,0,1-16.44,5.51C945.2,220.47,937.29,213.92,937.29,204.35Zm21.84,8.43a20.42,20.42,0,0,0,14-5v-9.16a27.55,27.55,0,0,0-13.63-3.22c-7.59,0-12.27,3.43-12.27,8.74C947.28,209.24,952.06,212.78,959.13,212.78Z"/>
      <path d="M995.33,166.6h10.4v5a20.31,20.31,0,0,1,14.87-6c7.18,0,13,3.33,16.33,8.84a21.21,21.21,0,0,1,17.89-8.84c11.64,0,19.86,8.42,19.86,20.7v33.28h-10.4V188c0-8.32-4.68-13.42-12.17-13.42-5.2,0-9.36,2.39-12.37,7.07a22.24,22.24,0,0,1,.41,4.58v33.28h-10.29V188c0-8.32-4.69-13.42-12.17-13.42a13.85,13.85,0,0,0-12,6.45v38.48h-10.4Z"/>
      <path d="M1087.26,205.81c5.51,4.37,11.34,6.66,17.27,6.66,7.48,0,12.68-3.23,12.68-7.91,0-3.74-2.7-5.93-8.52-6.76l-9.57-1.35c-10.51-1.56-15.81-6.45-15.81-14.66,0-9.57,8.32-16,20.7-16a36.28,36.28,0,0,1,21.32,6.76l-5.31,6.86c-5.82-3.85-11.13-5.51-16.74-5.51-6.35,0-10.61,2.91-10.61,7.18,0,3.85,2.5,5.72,8.74,6.65l9.56,1.36c10.51,1.56,16,6.55,16,14.76,0,9.47-9.57,16.64-22.15,16.64-9.15,0-17.37-2.7-23.2-7.8Z"/>
      <path d="M235.3,275.43v-9.88c0-10.19,5.73-15.81,16.13-15.81a20.12,20.12,0,0,1,7,.94v6.86a20.09,20.09,0,0,0-6.44-1c-6.14,0-9,2.92-9,9.26v9.67h15.49V282H242.9v45.56h-7.6V282H223v-6.55Z"/>
      <path d="M288.24,274.39c14.77,0,26.52,11.86,26.52,27S303,328.58,288.24,328.58s-26.62-11.86-26.62-27.15S273.37,274.39,288.24,274.39Zm18.93,27c0-11.33-8.32-20.17-18.93-20.17s-19,8.84-19,20.17,8.32,20.28,19,20.28S307.17,312.77,307.17,301.43Z"/>
      <path d="M325.47,275.43h7.7v7.39a16.25,16.25,0,0,1,14.56-8.53,14.25,14.25,0,0,1,4.89.73v7.07a16.75,16.75,0,0,0-5.41-.94c-6.45,0-11.34,3.75-14,10.72v35.67h-7.7Z"/>
      <path d="M407.94,254.74h9.68l29.84,72.8h-8.73l-9.15-22.88H395.26L386,327.54h-8.32Zm18.83,43.05-14.25-35.57-14.46,35.57Z"/>
      <path d="M454.43,275.43H462v5.62a23.81,23.81,0,0,1,16.85-6.45c14.77,0,26.21,11.75,26.21,26.83s-11.44,26.94-26.31,26.94a26.13,26.13,0,0,1-16.64-6v26.52h-7.7Zm7.7,13.21v25.79a20.57,20.57,0,0,0,16,7.18c11,0,19.35-8.63,19.35-20.07s-8.43-20.18-19.35-20.18A20.18,20.18,0,0,0,462.13,288.64Z"/>
      <path d="M513.5,312.77c0-9.78,8-15.91,20.8-15.91a33.87,33.87,0,0,1,15.29,3.53v-6.86c0-8.32-4.79-12.59-13.83-12.59-5.1,0-10.09,1.36-16.33,4.58l-2.91-5.93c7.48-3.64,13.62-5.2,20-5.2,13.21,0,20.6,6.45,20.6,18.1v35.05h-7.49v-5.1a24.81,24.81,0,0,1-16.85,6C521.3,328.47,513.5,322.13,513.5,312.77Zm20.59,9.67c6.24,0,11.34-1.87,15.5-6v-9.78c-4.26-2.91-9.05-4.16-15.08-4.16-8.32,0-13.63,4-13.63,10.09C520.88,318.39,526.29,322.44,534.09,322.44Z"/>
      <path d="M609.49,315l4.79,5.2a29.12,29.12,0,0,1-20.18,8.32c-14.87,0-26.52-11.85-26.52-27s11.65-27,26.52-27a29.59,29.59,0,0,1,20.38,8.22l-4.88,5.62a21.41,21.41,0,0,0-15.4-6.77c-10.71,0-19,8.85-19,20,0,11.34,8.43,20.08,19.14,20.08C599.92,321.51,605,319.32,609.49,315Z"/>
      <path d="M623.32,254.74,631,253v28.6c4.05-4.79,9.67-7.18,16.43-7.18,11.86,0,20.07,8.22,20.07,20.18v33h-7.59V296.13c0-9.26-5.62-15-14.56-15a16.19,16.19,0,0,0-14.35,8v38.38h-7.7Z"/>
      <path d="M704.86,328.47a26.55,26.55,0,0,1-26.83-27c0-15,11.33-26.83,25.68-26.83,13.84,0,24.65,11.86,24.65,26.83v2.4H685.62c1.14,10.29,9.25,17.88,19.55,17.88,5.41,0,10.82-1.76,14.35-4.78l4.79,5.1A30.89,30.89,0,0,1,704.86,328.47Zm-19-30.78h34.84c-1.36-9.26-8.53-16.33-17.16-16.33C694.46,281.36,687.28,288.12,685.83,297.69Z"/>
      <path d="M762.89,254.74h8v34.53l37.65-34.53h10.5l-39.52,35.67,40.35,37.13H808.65l-37.75-35v35h-8Z"/>
      <path d="M820.09,312.77c0-9.78,8-15.91,20.8-15.91a33.87,33.87,0,0,1,15.29,3.53v-6.86c0-8.32-4.79-12.59-13.83-12.59-5.1,0-10.09,1.36-16.33,4.58l-2.91-5.93c7.48-3.64,13.62-5.2,20-5.2,13.21,0,20.6,6.45,20.6,18.1v35.05h-7.49v-5.1a24.81,24.81,0,0,1-16.85,6C827.89,328.47,820.09,322.13,820.09,312.77Zm20.59,9.67c6.24,0,11.34-1.87,15.5-6v-9.78c-4.27-2.91-9-4.16-15.08-4.16-8.32,0-13.63,4-13.63,10.09C827.47,318.39,832.88,322.44,840.68,322.44Z"/>
      <path d="M882,275.43v-9.88c0-10.19,5.72-15.81,16.12-15.81a20.15,20.15,0,0,1,7,.94v6.86a20.15,20.15,0,0,0-6.45-1c-6.14,0-9.05,2.92-9.05,9.26v9.67h15.5V282h-15.5v45.56H882V282H869.7v-6.55Z"/>
      <path d="M913.38,254.74l7.69-1.77v46l27.25-23.51h9.36l-28.6,24.76L959,327.54h-10.5l-27.46-25v25h-7.69Z"/>
      <path d="M959.86,312.77c0-9.78,8-15.91,20.8-15.91A33.84,33.84,0,0,1,996,300.39v-6.86c0-8.32-4.78-12.59-13.83-12.59-5.09,0-10.09,1.36-16.33,4.58l-2.91-5.93c7.49-3.64,13.62-5.2,20-5.2,13.21,0,20.59,6.45,20.59,18.1v35.05H996v-5.1a24.78,24.78,0,0,1-16.84,6C967.66,328.47,959.86,322.13,959.86,312.77Zm20.6,9.67c6.24,0,11.33-1.87,15.49-6v-9.78c-4.26-2.91-9-4.16-15.08-4.16-8.32,0-13.62,4-13.62,10.09C967.25,318.39,972.66,322.44,980.46,322.44Z"/>
    </g>
    <g>
      <g>
        <path class="fd8f88d9-ecb6-4f33-bf8c-24f15806ba51" d="M129,85c12.51,0,30.61-2.58,30.61-17.46a14,14,0,0,0-.31-3.42l-7.45-32.36c-1.72-7.12-3.23-10.35-15.73-16.6C126.39,10.19,105.26,2,99,2c-5.82,0-7.55,7.54-14.45,7.54-6.68,0-11.64-5.6-17.89-5.6-6,0-9.91,4.09-12.93,12.5,0,0-8.41,23.72-9.49,27.16A6.43,6.43,0,0,0,44,45.54C44,54.76,80.33,85,129,85m32.55-11.42c1.73,8.19,1.73,9.05,1.73,10.13,0,14-15.74,21.77-36.43,21.77C80,105.47,39.08,78.1,39.08,60a18.45,18.45,0,0,1,1.51-7.33C23.77,53.52,2,56.54,2,75.72,2,107.2,76.59,146,135.65,146c45.28,0,56.7-20.48,56.7-36.65,0-12.72-11-27.16-30.83-35.78"/>
        <path d="M161.52,73.57c1.73,8.19,1.73,9.05,1.73,10.13,0,14-15.74,21.77-36.43,21.77C80,105.47,39.08,78.1,39.08,60a18.45,18.45,0,0,1,1.51-7.33l3.66-9.06A6.43,6.43,0,0,0,44,45.54C44,54.76,80.33,85,129,85c12.51,0,30.61-2.58,30.61-17.46a14,14,0,0,0-.31-3.42Z"/>
      </g>
      <path d="M581.24,94.3c0,11.89,7.15,17.67,20.19,17.67a52.11,52.11,0,0,0,11.89-1.68V96.51a24.84,24.84,0,0,1-7.68,1.16c-5.37,0-7.36-1.68-7.36-6.73V69.8h15.56V55.6H598.28v-18l-17,3.68V55.6H570V69.8h11.25Zm-53,.32c0-3.68,3.69-5.47,9.26-5.47a43.12,43.12,0,0,1,10.1,1.26v7.15A21.51,21.51,0,0,1,537,100.19c-5.46,0-8.73-2.1-8.73-5.57m5.2,17.56c6,0,10.84-1.26,15.36-4.31v3.37h16.82V75.58c0-13.56-9.14-21-24.39-21-8.52,0-16.94,2-26,6.1l6.1,12.52c6.52-2.74,12-4.42,16.83-4.42,7,0,10.62,2.73,10.62,8.31v2.73a49.53,49.53,0,0,0-12.62-1.58c-14.31,0-22.93,6-22.93,16.73,0,9.78,7.78,17.24,20.19,17.24m-92.44-.94h18.09V82.42h30.29v28.82h18.09V37.62H489.43V65.91H459.14V37.62H441.05ZM372.12,83.37c0-8,6.31-14.1,14.62-14.1a17.22,17.22,0,0,1,11.78,4.32V93a16.36,16.36,0,0,1-11.78,4.42c-8.2,0-14.62-6.1-14.62-14.09m26.61,27.87h16.83V33.94l-17,3.68V58.55a28.3,28.3,0,0,0-14.2-3.68c-16.19,0-28.92,12.51-28.92,28.5A28.25,28.25,0,0,0,383.8,112a25.12,25.12,0,0,0,14.93-4.83Zm-77.19-42.7c5.36,0,9.88,3.47,11.67,8.83H310c1.68-5.57,5.89-8.83,11.57-8.83M292.83,83.47c0,16.2,13.25,28.82,30.28,28.82,9.36,0,16.2-2.53,23.25-8.42l-11.26-10c-2.63,2.74-6.52,4.21-11.14,4.21a14.39,14.39,0,0,1-13.68-8.83h39.65V85.05c0-17.67-11.88-30.39-28.08-30.39a28.57,28.57,0,0,0-29,28.81M263.49,53.08c6,0,9.36,3.78,9.36,8.31s-3.37,8.31-9.36,8.31H245.61V53.08Zm-36,58.16h18.09V84.42h13.77l13.89,26.82h20.19l-16.2-29.45a22.27,22.27,0,0,0,13.88-20.72c0-13.25-10.41-23.45-26-23.45H227.52Z"/>
    </g>
  </g>
</svg>
