<svg id="f6ff5a22-c356-4a7a-a409-abd8d4bb5bdd" data-name="Logos" xmlns="http://www.w3.org/2000/svg" viewBox="0 0 1151.87 350">
  <defs>
    <style>
      .f110dffb-99ef-45bb-ba8d-7f2ffadeae9e {
        fill: #fff;
      }

      .a3721849-1e9d-4537-b982-1b45278f8ac8 {
        fill: #e00;
      }
    </style>
  </defs>
  <g>
    <g>
      <path class="f110dffb-99ef-45bb-ba8d-7f2ffadeae9e" d="M263.39,220.68c-21.22,0-37.86-16.53-37.86-37.54s16.64-37.55,37.86-37.55,38,16.54,38,37.55S284.6,220.68,263.39,220.68Zm0-65c-15.08,0-26.73,11.86-26.73,27.46s11.65,27.45,26.73,27.45,26.83-12,26.83-27.45S278.57,155.68,263.39,155.68Z"/>
      <path class="f110dffb-99ef-45bb-ba8d-7f2ffadeae9e" d="M311.74,166.6H322v5.1a24.14,24.14,0,0,1,16.22-5.93c15,0,26.73,12,26.73,27.25s-11.75,27.35-26.93,27.35a26.75,26.75,0,0,1-15.92-5.2v25.9h-10.4Zm10.4,14.56v23.92c3.33,3.85,8.84,6.24,14.77,6.24,10.2,0,17.89-7.8,17.89-18.2s-7.8-18.3-17.89-18.3C330.88,174.82,325.58,177.1,322.14,181.16Z"/>
      <path class="f110dffb-99ef-45bb-ba8d-7f2ffadeae9e" d="M400.46,220.47c-15.6,0-27.77-12-27.77-27.45,0-15.29,11.65-27.25,26.52-27.25,14.56,0,25.58,12.06,25.58,27.66v3H383a17.86,17.86,0,0,0,17.89,15.18A20.56,20.56,0,0,0,414.29,207l6.66,6.56A31.61,31.61,0,0,1,400.46,220.47Zm-17.37-31.82H414.5c-1.56-8.11-7.8-14.15-15.5-14.15C391,174.5,384.65,180.23,383.09,188.65Z"/>
      <path class="f110dffb-99ef-45bb-ba8d-7f2ffadeae9e" d="M434.67,166.6h10.4v5.3A21.8,21.8,0,0,1,461,165.56c12.17,0,20.7,8.42,20.7,20.7v33.28h-10.4V188c0-8.32-5.1-13.42-13.1-13.42a15,15,0,0,0-13.11,6.86v38.07h-10.4Z"/>
      <path class="f110dffb-99ef-45bb-ba8d-7f2ffadeae9e" d="M495,199.78c7.9,7.69,16,11.44,25.06,11.44,10.51,0,17.68-5,17.68-12.17,0-6.45-4.16-9.67-14.76-11.44l-12.17-2c-13.31-2.18-19.87-8.42-19.87-18.93,0-12.68,10.61-20.9,26.84-20.9a48.88,48.88,0,0,1,29.33,9.88l-6,8.32c-7.9-6-15.7-8.94-23.81-8.94-9.47,0-15.81,4.36-15.81,10.81,0,5.93,3.64,8.74,13,10.3L526.19,178c15.39,2.5,22.36,8.84,22.36,20.18,0,13.41-11.65,22.36-29,22.36a43.85,43.85,0,0,1-31.2-13.11Z"/>
      <path class="f110dffb-99ef-45bb-ba8d-7f2ffadeae9e" d="M557.39,146.74l10.4-2.29V171.9a21.8,21.8,0,0,1,15.91-6.34c12.17,0,20.7,8.42,20.7,20.7v33.28H594V188c0-8.32-5.1-13.42-13.11-13.42a15,15,0,0,0-13.1,6.86v38.07h-10.4Z"/>
      <path class="f110dffb-99ef-45bb-ba8d-7f2ffadeae9e" d="M615.21,151.62a6.39,6.39,0,0,1,6.34-6.44,6.45,6.45,0,1,1,0,12.89A6.39,6.39,0,0,1,615.21,151.62Zm11.55,67.92h-10.4V166.6h10.4Z"/>
      <path class="f110dffb-99ef-45bb-ba8d-7f2ffadeae9e" d="M646.93,166.6v-8c0-11,6.34-17.05,18-17.05a27.45,27.45,0,0,1,7.49.93v9.05a20.77,20.77,0,0,0-6.55-.94c-5.72,0-8.53,2.6-8.53,8.22v7.8h15.08v8.74H657.33v44.2h-10.4v-44.2H634.66V166.6Z"/>
      <path class="f110dffb-99ef-45bb-ba8d-7f2ffadeae9e" d="M688.22,175.34H677V166.6h11.24V153.08l10.29-2.5v16h15.6v8.74h-15.6V204c0,5.41,2.19,7.39,7.8,7.39a20.64,20.64,0,0,0,7.6-1.25v8.73a34.37,34.37,0,0,1-9.88,1.56c-10.3,0-15.81-4.88-15.81-14Z"/>
      <path class="f110dffb-99ef-45bb-ba8d-7f2ffadeae9e" d="M252,254.74h9.67l29.85,72.8h-8.74l-9.15-22.88H239.26L230,327.54h-8.32Zm18.82,43.05-14.25-35.57-14.45,35.57Z"/>
      <path class="f110dffb-99ef-45bb-ba8d-7f2ffadeae9e" d="M298.43,275.43H306v5.62a23.83,23.83,0,0,1,16.85-6.45c14.77,0,26.21,11.75,26.21,26.83s-11.44,26.94-26.31,26.94a26.13,26.13,0,0,1-16.64-6v26.52h-7.7Zm7.7,13.21v25.79a20.57,20.57,0,0,0,16,7.18c11,0,19.35-8.63,19.35-20.07s-8.43-20.18-19.35-20.18A20.18,20.18,0,0,0,306.13,288.64Z"/>
      <path class="f110dffb-99ef-45bb-ba8d-7f2ffadeae9e" d="M359.79,275.43h7.59v5.62a23.83,23.83,0,0,1,16.85-6.45c14.77,0,26.21,11.75,26.21,26.83S399,328.37,384.13,328.37a26.13,26.13,0,0,1-16.64-6v26.52h-7.7Zm7.7,13.21v25.79a20.56,20.56,0,0,0,16,7.18c11,0,19.35-8.63,19.35-20.07s-8.43-20.18-19.35-20.18A20.18,20.18,0,0,0,367.49,288.64Z"/>
      <path class="f110dffb-99ef-45bb-ba8d-7f2ffadeae9e" d="M428.85,327.54h-7.7v-72.8l7.7-1.77Z"/>
      <path class="f110dffb-99ef-45bb-ba8d-7f2ffadeae9e" d="M440.6,260.25a5.22,5.22,0,0,1,5.2-5.2,5.15,5.15,0,0,1,5.2,5.2,5.22,5.22,0,0,1-5.2,5.2A5.28,5.28,0,0,1,440.6,260.25Zm9,67.29H442V275.43h7.7Z"/>
      <path class="f110dffb-99ef-45bb-ba8d-7f2ffadeae9e" d="M502.27,315l4.78,5.2a29.08,29.08,0,0,1-20.17,8.32c-14.87,0-26.52-11.85-26.52-27s11.65-27,26.52-27a29.59,29.59,0,0,1,20.38,8.22l-4.89,5.62A21.39,21.39,0,0,0,487,281.46c-10.71,0-19,8.85-19,20,0,11.34,8.42,20.08,19.14,20.08C492.7,321.51,497.8,319.32,502.27,315Z"/>
      <path class="f110dffb-99ef-45bb-ba8d-7f2ffadeae9e" d="M513.29,312.77c0-9.78,8-15.91,20.8-15.91a33.84,33.84,0,0,1,15.29,3.53v-6.86c0-8.32-4.78-12.59-13.83-12.59-5.1,0-10.09,1.36-16.33,4.58l-2.91-5.93c7.49-3.64,13.62-5.2,20-5.2,13.21,0,20.59,6.45,20.59,18.1v35.05h-7.49v-5.1a24.81,24.81,0,0,1-16.85,6C521.09,328.47,513.29,322.13,513.29,312.77Zm20.59,9.67c6.24,0,11.34-1.87,15.5-6v-9.78c-4.26-2.91-9-4.16-15.08-4.16-8.32,0-13.62,4-13.62,10.09C520.68,318.39,526.08,322.44,533.88,322.44Z"/>
      <path class="f110dffb-99ef-45bb-ba8d-7f2ffadeae9e" d="M574.13,282H562.9v-6.55h11.23V262.22l7.6-2v15.18h15.7V282h-15.7v31.93c0,5.62,2.28,7.8,8,7.8a18.59,18.59,0,0,0,7.6-1.35v6.76a29.48,29.48,0,0,1-9.16,1.35c-9,0-14-4.36-14-12.58Z"/>
      <path class="f110dffb-99ef-45bb-ba8d-7f2ffadeae9e" d="M604.29,260.25a5.22,5.22,0,0,1,5.2-5.2,5.15,5.15,0,0,1,5.2,5.2,5.22,5.22,0,0,1-5.2,5.2A5.28,5.28,0,0,1,604.29,260.25Zm9.05,67.29h-7.7V275.43h7.7Z"/>
      <path class="f110dffb-99ef-45bb-ba8d-7f2ffadeae9e" d="M650.68,274.39c14.76,0,26.52,11.86,26.52,27s-11.76,27.15-26.52,27.15-26.63-11.86-26.63-27.15S635.8,274.39,650.68,274.39Zm18.92,27c0-11.33-8.32-20.17-18.92-20.17s-19,8.84-19,20.17,8.32,20.28,19,20.28S669.6,312.77,669.6,301.43Z"/>
      <path class="f110dffb-99ef-45bb-ba8d-7f2ffadeae9e" d="M687.91,275.43h7.69v6.14c4.06-4.79,9.67-7.18,16.44-7.18,11.85,0,20.07,8.22,20.07,20.18v33h-7.59V296.13c0-9.26-5.62-15-14.57-15a16.19,16.19,0,0,0-14.35,8v38.38h-7.69Z"/>
      <path class="f110dffb-99ef-45bb-ba8d-7f2ffadeae9e" d="M767.26,309.55c7.49,8,16,12.06,25.48,12.06,11.44,0,19.55-5.93,19.55-14.35,0-7.49-4.78-11.13-16.74-13.11L785,292.49c-14-2.29-20.49-8.11-20.49-18.41,0-12.06,10.3-20.28,25.59-20.28a47.94,47.94,0,0,1,28.7,9.67l-4.57,6.24c-8-6-16.12-9-24.44-9-10.4,0-17.48,5.2-17.48,12.8,0,6.76,4.16,10.08,14.77,11.75l10.4,1.66c15.91,2.6,22.78,8.64,22.78,20,0,12.79-11.44,21.74-27.87,21.74A41.12,41.12,0,0,1,762,315.06Z"/>
      <path class="f110dffb-99ef-45bb-ba8d-7f2ffadeae9e" d="M855.24,328.47a26.55,26.55,0,0,1-26.83-27c0-15,11.33-26.83,25.69-26.83,13.83,0,24.65,11.86,24.65,26.83v2.4H836c1.14,10.29,9.26,17.88,19.55,17.88,5.41,0,10.82-1.76,14.36-4.78l4.78,5.1A30.87,30.87,0,0,1,855.24,328.47Zm-19-30.78h34.84c-1.35-9.26-8.53-16.33-17.16-16.33C844.84,281.36,837.66,288.12,836.21,297.69Z"/>
      <path class="f110dffb-99ef-45bb-ba8d-7f2ffadeae9e" d="M889.45,275.43h7.7v7.39a16.26,16.26,0,0,1,14.56-8.53,14.21,14.21,0,0,1,4.89.73v7.07a16.75,16.75,0,0,0-5.41-.94c-6.45,0-11.33,3.75-14,10.72v35.67h-7.7Z"/>
      <path class="f110dffb-99ef-45bb-ba8d-7f2ffadeae9e" d="M921.48,275.43H930l17.79,42.12,17.78-42.12h8.22l-22.47,52.11h-7.28Z"/>
      <path class="f110dffb-99ef-45bb-ba8d-7f2ffadeae9e" d="M979.52,260.25a5.22,5.22,0,0,1,5.2-5.2,5.15,5.15,0,0,1,5.2,5.2,5.22,5.22,0,0,1-5.2,5.2A5.28,5.28,0,0,1,979.52,260.25Zm9,67.29h-7.69V275.43h7.69Z"/>
      <path class="f110dffb-99ef-45bb-ba8d-7f2ffadeae9e" d="M1041.19,315l4.78,5.2a29.08,29.08,0,0,1-20.17,8.32c-14.88,0-26.52-11.85-26.52-27s11.64-27,26.52-27a29.61,29.61,0,0,1,20.38,8.22l-4.89,5.62a21.39,21.39,0,0,0-15.39-6.77c-10.71,0-19,8.85-19,20,0,11.34,8.42,20.08,19.13,20.08C1031.62,321.51,1036.72,319.32,1041.19,315Z"/>
      <path class="f110dffb-99ef-45bb-ba8d-7f2ffadeae9e" d="M1077.38,328.47a26.55,26.55,0,0,1-26.83-27c0-15,11.33-26.83,25.69-26.83,13.83,0,24.64,11.86,24.64,26.83v2.4h-42.74c1.14,10.29,9.26,17.88,19.55,17.88,5.41,0,10.82-1.76,14.35-4.78l4.79,5.1A30.89,30.89,0,0,1,1077.38,328.47Zm-19-30.78h34.84c-1.35-9.26-8.53-16.33-17.16-16.33C1067,281.36,1059.8,288.12,1058.35,297.69Z"/>
      <path class="f110dffb-99ef-45bb-ba8d-7f2ffadeae9e" d="M1111.49,315.37a25,25,0,0,0,17,7c8.32,0,14.15-3.85,14.15-9.36,0-4.47-3-7-9.68-7.91l-9-1.24c-10.4-1.56-15.4-6.14-15.4-14,0-8.74,8.12-15.19,19.56-15.19a33.32,33.32,0,0,1,20.49,6.86l-4.06,5.21c-5.83-4-11.13-5.83-16.85-5.83-7.18,0-12.06,3.54-12.06,8.63,0,4.48,2.8,6.66,9.67,7.7l9,1.25c10.4,1.45,15.6,6.13,15.6,14.14,0,9.05-9.16,15.91-21.12,15.91-8.63,0-16.43-2.91-21.94-8.11Z"/>
    </g>
    <g>
      <g>
        <path class="a3721849-1e9d-4537-b982-1b45278f8ac8" d="M129,85c12.51,0,30.61-2.58,30.61-17.46a14,14,0,0,0-.31-3.42l-7.45-32.36c-1.72-7.12-3.23-10.35-15.73-16.6C126.39,10.19,105.26,2,99,2c-5.82,0-7.55,7.54-14.45,7.54-6.68,0-11.64-5.6-17.89-5.6-6,0-9.91,4.09-12.93,12.5,0,0-8.41,23.72-9.49,27.16A6.43,6.43,0,0,0,44,45.54C44,54.76,80.33,85,129,85m32.55-11.42c1.73,8.19,1.73,9.05,1.73,10.13,0,14-15.74,21.77-36.43,21.77C80,105.47,39.08,78.1,39.08,60a18.45,18.45,0,0,1,1.51-7.33C23.77,53.52,2,56.54,2,75.72,2,107.2,76.59,146,135.65,146c45.28,0,56.7-20.48,56.7-36.65,0-12.72-11-27.16-30.83-35.78"/>
        <path d="M161.52,73.57c1.73,8.19,1.73,9.05,1.73,10.13,0,14-15.74,21.77-36.43,21.77C80,105.47,39.08,78.1,39.08,60a18.45,18.45,0,0,1,1.51-7.33l3.66-9.06A6.43,6.43,0,0,0,44,45.54C44,54.76,80.33,85,129,85c12.51,0,30.61-2.58,30.61-17.46a14,14,0,0,0-.31-3.42Z"/>
      </g>
      <path class="f110dffb-99ef-45bb-ba8d-7f2ffadeae9e" d="M581.24,94.3c0,11.89,7.15,17.67,20.19,17.67a52.11,52.11,0,0,0,11.89-1.68V96.51a24.84,24.84,0,0,1-7.68,1.16c-5.37,0-7.36-1.68-7.36-6.73V69.8h15.56V55.6H598.28v-18l-17,3.68V55.6H570V69.8h11.25Zm-53,.32c0-3.68,3.69-5.47,9.26-5.47a43.12,43.12,0,0,1,10.1,1.26v7.15A21.51,21.51,0,0,1,537,100.19c-5.46,0-8.73-2.1-8.73-5.57m5.2,17.56c6,0,10.84-1.26,15.36-4.31v3.37h16.82V75.58c0-13.56-9.14-21-24.39-21-8.52,0-16.94,2-26,6.1l6.1,12.52c6.52-2.74,12-4.42,16.83-4.42,7,0,10.62,2.73,10.62,8.31v2.73a49.53,49.53,0,0,0-12.62-1.58c-14.31,0-22.93,6-22.93,16.73,0,9.78,7.78,17.24,20.19,17.24m-92.44-.94h18.09V82.42h30.29v28.82h18.09V37.62H489.43V65.91H459.14V37.62H441.05ZM372.12,83.37c0-8,6.31-14.1,14.62-14.1a17.22,17.22,0,0,1,11.78,4.32V93a16.36,16.36,0,0,1-11.78,4.42c-8.2,0-14.62-6.1-14.62-14.09m26.61,27.87h16.83V33.94l-17,3.68V58.55a28.3,28.3,0,0,0-14.2-3.68c-16.19,0-28.92,12.51-28.92,28.5A28.25,28.25,0,0,0,383.8,112a25.12,25.12,0,0,0,14.93-4.83Zm-77.19-42.7c5.36,0,9.88,3.47,11.67,8.83H310c1.68-5.57,5.89-8.83,11.57-8.83M292.83,83.47c0,16.2,13.25,28.82,30.28,28.82,9.36,0,16.2-2.53,23.25-8.42l-11.26-10c-2.63,2.74-6.52,4.21-11.14,4.21a14.39,14.39,0,0,1-13.68-8.83h39.65V85.05c0-17.67-11.88-30.39-28.08-30.39a28.57,28.57,0,0,0-29,28.81M263.49,53.08c6,0,9.36,3.78,9.36,8.31s-3.37,8.31-9.36,8.31H245.61V53.08Zm-36,58.16h18.09V84.42h13.77l13.89,26.82h20.19l-16.2-29.45a22.27,22.27,0,0,0,13.88-20.72c0-13.25-10.41-23.45-26-23.45H227.52Z"/>
    </g>
  </g>
</svg>
