<svg id="Art" xmlns="http://www.w3.org/2000/svg" xmlns:xlink="http://www.w3.org/1999/xlink" viewBox="0 0 700 600"><defs><style>.cls-1,.cls-14{fill:#fff;}.cls-11,.cls-18,.cls-19,.cls-2{fill:none;}.cls-3{fill:#dedede;}.cls-4{mask:url(#mask);}.cls-5{fill:#f56d6d;}.cls-6{fill:#fddbdb;}.cls-7{clip-path:url(#clip-path);}.cls-8{mask:url(#mask-2);}.cls-9{clip-path:url(#clip-path-2);}.cls-10{fill:#fab6b6;}.cls-11,.cls-13,.cls-14{stroke:#e00;stroke-miterlimit:10;stroke-width:1.61px;}.cls-12,.cls-13{fill:#e00;}.cls-15,.cls-17{fill:red;}.cls-16{clip-path:url(#clip-path-3);}.cls-17,.cls-18{stroke:#fff;stroke-width:1.95px;}.cls-17,.cls-18,.cls-19{stroke-linecap:round;stroke-linejoin:round;}.cls-19{stroke:red;stroke-width:1.49px;}</style><mask id="mask" x="46" y="51.98" width="298.39" height="227.44" maskUnits="userSpaceOnUse"><rect class="cls-1" x="46.41" y="52.38" width="297.59" height="226.64"/><path d="M343.59,52.78V278.62H46.81V52.78H343.59m.8-.8H46V279.42H344.39V52Z"/><rect x="73.77" y="57.94" width="269.04" height="192.61"/></mask><clipPath id="clip-path"><path id="SVGID" class="cls-2" d="M383.6,485.7s-22,18.55-56.8,7-35.08-43.45-35.08-43.45-35.59-1.31-51.89-30.8c-14.27-25.83-.19-56.89-.19-56.89s-19.37-4.5-29.58-25.66-.79-40.82-.79-40.82-22.61-21-13.65-47.91,30.67-31.66,30.67-31.66,1.26-29.1,24.86-51.69c21.73-20.8,57.06-16.1,57.06-16.1s4.19-30.36,33-35.12,42.41,15.23,42.41,15.23Z"/></clipPath><mask id="mask-2" x="46" y="51.98" width="298.39" height="227.44" maskUnits="userSpaceOnUse"><rect class="cls-1" x="46.41" y="52.38" width="297.59" height="226.64"/><path d="M343.59,52.78V278.62H46.81V52.78H343.59m.8-.8H46V279.42H344.39V52Z"/><rect x="53.07" y="57.94" width="269.04" height="192.61"/></mask><clipPath id="clip-path-2"><rect id="SVGID-2" data-name="SVGID" class="cls-2" x="70.13" y="62.71" width="269.04" height="191.36"/></clipPath><clipPath id="clip-path-3"><polygon class="cls-2" points="241.48 349.52 241.48 413 186.51 444.73 131.54 413 131.54 349.52 186.51 317.79 241.48 349.52"/></clipPath></defs><path class="cls-3" d="M211.4,159.75c-37.46,24.13-75.58,38.66-116.4,52.61-36,12.29-81.54,39.56-92.59,78.05-11.13,38.77,14.35,113.1,117.91,114.47,117.53,1.56,177.59,41.77,240.66,61.68,63.36,20,120.31,27.75,174.85,3,73.78-33.47,118.26-118,116.8-195.35-1.27-67.65-49.14-126.2-106.69-158.9C497.47,87.78,439.75,77.14,384.28,84.49,287.72,97.29,238.61,142.22,211.4,159.75Z"/><g class="cls-4"><rect class="cls-5" x="63.53" y="69.65" width="269.04" height="191.36"/></g><path class="cls-6" d="M383.6,485.7s-22,18.55-56.8,7-35.08-43.45-35.08-43.45-35.59-1.31-51.89-30.8c-14.27-25.83-.19-56.89-.19-56.89s-19.37-4.5-29.58-25.66-.79-40.82-.79-40.82-22.61-21-13.65-47.91,30.67-31.66,30.67-31.66,1.26-29.1,24.86-51.69c21.73-20.8,57.06-16.1,57.06-16.1s4.19-30.36,33-35.12,42.41,15.23,42.41,15.23Z"/><g class="cls-7"><g class="cls-8"><rect class="cls-5" x="63.53" y="74.45" width="269.04" height="186.57"/></g></g><rect class="cls-1" x="70.29" y="62.76" width="269.04" height="191.36"/><g class="cls-9"><path class="cls-6" d="M211.4,159.75c-37.46,24.13-75.58,38.66-116.4,52.61-36,12.29-81.54,39.56-92.59,78.05-11.13,38.77,14.35,113.1,117.91,114.47,117.53,1.56,177.59,41.77,240.66,61.68,63.36,20,120.31,27.75,174.85,3,73.78-33.47,118.26-118,116.8-195.35-1.27-67.65-49.14-126.2-106.69-158.9C497.47,87.78,439.75,77.14,384.28,84.49,287.72,97.29,238.61,142.22,211.4,159.75Z"/><path class="cls-10" d="M383.6,485.7s-22,18.55-56.8,7-35.08-43.45-35.08-43.45-35.59-1.31-51.89-30.8c-14.27-25.83-.19-56.89-.19-56.89s-19.37-4.5-29.58-25.66-.79-40.82-.79-40.82-22.61-21-13.65-47.91,30.67-31.66,30.67-31.66,1.26-29.1,24.86-51.69c21.73-20.8,57.06-16.1,57.06-16.1s4.19-30.36,33-35.12,42.41,15.23,42.41,15.23Z"/></g><path class="cls-1" d="M383.6,485.7s22,18.55,56.79,7,35.08-43.45,35.08-43.45,35.59-1.31,51.89-30.8c14.27-25.83.19-56.89.19-56.89s19.37-4.5,29.58-25.66.79-40.82.79-40.82,22.61-21,13.65-47.91-30.67-31.66-30.67-31.66-1.26-29.1-24.86-51.69c-21.73-20.8-57.06-16.1-57.06-16.1s-4.19-30.36-33-35.12-42.4,15.23-42.4,15.23Z"/><path class="cls-11" d="M383.6,485.7s-22,18.55-56.8,7-35.08-43.45-35.08-43.45-35.59-1.31-51.89-30.8c-14.27-25.83-.19-56.89-.19-56.89s-19.37-4.5-29.58-25.66-.79-40.82-.79-40.82-22.61-21-13.65-47.91,30.67-31.66,30.67-31.66,1.26-29.1,24.86-51.69c21.73-20.8,57.06-16.1,57.06-16.1s4.19-30.36,33-35.12,42.41,15.23,42.41,15.23Z"/><path class="cls-11" d="M383.6,485.7s22,18.55,56.79,7,35.08-43.45,35.08-43.45,35.59-1.31,51.89-30.8c14.27-25.83.19-56.89.19-56.89s19.37-4.5,29.58-25.66.79-40.82.79-40.82,22.61-21,13.65-47.91-30.67-31.66-30.67-31.66-1.26-29.1-24.86-51.69c-21.73-20.8-57.06-16.1-57.06-16.1s-4.19-30.36-33-35.12-42.4,15.23-42.4,15.23Z"/><path class="cls-11" d="M291.72,440.63V411.7a11.29,11.29,0,0,0-3.31-8L274.71,390"/><path class="cls-11" d="M291.72,416.49V391.27a11.29,11.29,0,0,1,3.31-8l27.8-27.8"/><path class="cls-11" d="M291.72,449.29V439a6.17,6.17,0,0,1,6.17-6.17h9.58"/><circle class="cls-12" cx="274.71" cy="390.01" r="4.1"/><circle class="cls-12" cx="320.87" cy="357.44" r="4.1"/><circle class="cls-12" cx="266.85" cy="340.19" r="4.1"/><circle class="cls-12" cx="359.78" cy="419.89" r="4.1"/><circle class="cls-12" cx="419.47" cy="440.63" r="4.1"/><circle class="cls-12" cx="456.23" cy="387.1" r="4.1"/><circle class="cls-12" cx="494.18" cy="369.53" r="4.1"/><circle class="cls-12" cx="496.76" cy="243.7" r="4.1"/><circle class="cls-12" cx="502.79" cy="191.8" r="4.1"/><circle class="cls-12" cx="427.48" cy="353.56" r="4.1"/><circle class="cls-12" cx="435.67" cy="407.88" r="4.1"/><circle class="cls-12" cx="492.61" cy="406.19" r="4.1"/><circle class="cls-12" cx="292.71" cy="181.58" r="4.1"/><circle class="cls-12" cx="307.47" cy="432.87" r="4.1"/><path class="cls-11" d="M359.78,422.5V445a14,14,0,0,0,4.1,9.92l16.4,16.4a11.33,11.33,0,0,1,3.32,8v6.42"/><path class="cls-11" d="M226.29,215.55H251.6a17.29,17.29,0,0,0,12.2-5.05l28.91-28.92"/><path class="cls-11" d="M419.47,440.63h-8.8a14,14,0,0,0-9.91,4.11l-13.85,13.84a11.36,11.36,0,0,0-3.31,8v6.08"/><path class="cls-11" d="M475.47,449.29V410.94a11.13,11.13,0,0,0-3.26-7.86l-16-16"/><path class="cls-11" d="M475.47,424.26V394.77a15.78,15.78,0,0,1,4.61-11.14l14.1-14.1"/><path class="cls-11" d="M492.61,406.19l-13.88,13.89a11.13,11.13,0,0,0-3.26,7.87v7.43"/><path class="cls-11" d="M427.48,353.56v32.59a11,11,0,0,1-3.24,7.82l-37.31,37.32a11.33,11.33,0,0,0-3.32,8v9.33"/><path class="cls-11" d="M435.67,407.88h-20a12.92,12.92,0,0,0-9.11,3.77l-3.29,3.29"/><path class="cls-11" d="M540.9,215.55a55.21,55.21,0,0,0-7.86-1.11,14.64,14.64,0,0,0-11.29,4.27l-25,25"/><path class="cls-11" d="M425.12,205.66H414.5a11.06,11.06,0,0,0-7.83,3.24l-19.76,19.76a11.32,11.32,0,0,0-3.31,8v12.57"/><path class="cls-11" d="M409.91,183.8v15.8a14.62,14.62,0,0,1-4.28,10.34l-2.28,2.28"/><circle class="cls-12" cx="410.11" cy="184.69" r="4.1"/><circle class="cls-12" cx="368.06" cy="168.91" r="4.1"/><circle class="cls-12" cx="426.26" cy="161.63" r="4.1"/><circle class="cls-12" cx="474.54" cy="203.36" r="4.1"/><circle class="cls-12" cx="425.12" cy="206.3" r="4.1"/><path class="cls-11" d="M459,147.76h-.11a10.85,10.85,0,0,0-9.82,10.88v14.63a11,11,0,0,0,3.24,7.82l22.25,22.26"/><line class="cls-11" x1="449.05" y1="161.63" x2="423.64" y2="161.63"/><path class="cls-11" d="M502.79,191.8,521.5,211a11.45,11.45,0,0,0,8.19,3.45h2.5"/><rect class="cls-12" x="88.33" y="140.05" width="15.57" height="38.57"/><rect class="cls-10" x="115.9" y="109.13" width="15.57" height="69.49"/><rect class="cls-3" x="143.46" y="118.96" width="15.57" height="59.67"/><path class="cls-11" d="M383.6,200.47V190.18a13.91,13.91,0,0,0-4.06-9.8l-11.48-11.47"/><polyline class="cls-11" points="418.9 284.76 433.74 288.01 437.54 270.65"/><polyline class="cls-11" points="348.29 319.73 333.45 316.48 329.65 333.83"/><path class="cls-11" d="M333.57,316.44a52,52,0,0,0,102-14.2l175-.06"/><path class="cls-11" d="M433.62,288a52,52,0,0,0-102,14.2l-234.88-.06"/><path class="cls-11" d="M291.72,426V370.87a14,14,0,0,0-4.1-9.92l-20.77-20.76"/><rect class="cls-13" x="605.31" y="292.65" width="90.69" height="19.08" rx="9.54"/><rect class="cls-14" x="605.31" y="260.99" width="75.71" height="19.08" rx="9.54"/><rect class="cls-14" x="605.31" y="324.3" width="75.71" height="19.08" rx="9.54"/><rect class="cls-14" x="605.31" y="355.95" width="75.71" height="19.08" rx="9.54"/><rect class="cls-11" x="70.29" y="62.76" width="269.04" height="191.36"/><rect class="cls-12" x="70.29" y="62.76" width="269.04" height="21.16"/><circle class="cls-1" cx="325.72" cy="73.35" r="4.13"/><rect class="cls-14" x="14.17" y="292.65" width="90.69" height="19.08" rx="9.54"/><path class="cls-12" d="M323.9,392.17v-2h3.79v-8.67a2.28,2.28,0,0,1-.58.73,4.22,4.22,0,0,1-.91.6,6.38,6.38,0,0,1-1.14.41,5.3,5.3,0,0,1-1.26.15v-2.09a5.18,5.18,0,0,0,1.34-.16,5,5,0,0,0,1.14-.46,4.27,4.27,0,0,0,.91-.71,4,4,0,0,0,.65-.89h2.58v11.09h3.15v2Z"/><path class="cls-12" d="M471.65,240.65v-2h3.79V230a2.55,2.55,0,0,1-.58.73,4.3,4.3,0,0,1-.92.6,5.67,5.67,0,0,1-2.4.55v-2.08a5.32,5.32,0,0,0,1.35-.16,5.25,5.25,0,0,0,1.14-.47,3.88,3.88,0,0,0,.9-.7,3.56,3.56,0,0,0,.65-.9h2.59v11.09h3.14v2Z"/><path class="cls-12" d="M493.5,287.67v-2h3.79V277a2.28,2.28,0,0,1-.58.73,4.22,4.22,0,0,1-.91.6,5.68,5.68,0,0,1-1.14.4,5.3,5.3,0,0,1-1.26.15v-2.08a5.18,5.18,0,0,0,1.34-.16,5,5,0,0,0,1.14-.46,4.27,4.27,0,0,0,.91-.71,3.82,3.82,0,0,0,.65-.9H500v11.1h3.15v2Z"/><path class="cls-12" d="M319.59,405.62a11.87,11.87,0,0,1-.36,3.15,5.9,5.9,0,0,1-1,2.09,3.69,3.69,0,0,1-1.51,1.17,5.19,5.19,0,0,1-3.8,0,3.61,3.61,0,0,1-1.49-1.16,5.88,5.88,0,0,1-1-2.09,12.37,12.37,0,0,1-.35-3.16,13,13,0,0,1,.35-3.26,5.51,5.51,0,0,1,1-2.08,3.55,3.55,0,0,1,1.52-1.1,5.7,5.7,0,0,1,1.95-.32,5.34,5.34,0,0,1,1.86.32,3.52,3.52,0,0,1,1.49,1.1,5.52,5.52,0,0,1,1,2.08A12.5,12.5,0,0,1,319.59,405.62Zm-2.75,0a19.74,19.74,0,0,0-.1-2.23,5.8,5.8,0,0,0-.34-1.42,1.62,1.62,0,0,0-.61-.75,1.75,1.75,0,0,0-.91-.22,2,2,0,0,0-1,.22,1.66,1.66,0,0,0-.62.76,4.76,4.76,0,0,0-.34,1.43,19.19,19.19,0,0,0-.11,2.21,18.94,18.94,0,0,0,.11,2.19,5.46,5.46,0,0,0,.34,1.43,1.68,1.68,0,0,0,.61.77,1.84,1.84,0,0,0,.94.22,1.73,1.73,0,0,0,.91-.22,1.71,1.71,0,0,0,.63-.77,5.06,5.06,0,0,0,.35-1.43A16.93,16.93,0,0,0,316.84,405.62Z"/><path class="cls-12" d="M357.67,374.35a11.87,11.87,0,0,1-.36,3.15,5.73,5.73,0,0,1-1,2.09,3.69,3.69,0,0,1-1.51,1.17,5.19,5.19,0,0,1-3.8,0,3.59,3.59,0,0,1-1.49-1.16,5.88,5.88,0,0,1-1-2.09,12.37,12.37,0,0,1-.35-3.16,12.85,12.85,0,0,1,.35-3.25,5.56,5.56,0,0,1,1-2.09,3.55,3.55,0,0,1,1.52-1.1,5.7,5.7,0,0,1,2-.32,5.34,5.34,0,0,1,1.86.32,3.46,3.46,0,0,1,1.49,1.1,5.57,5.57,0,0,1,1,2.09A12.36,12.36,0,0,1,357.67,374.35Zm-2.75,0a19.55,19.55,0,0,0-.1-2.22,5.28,5.28,0,0,0-.34-1.42,1.6,1.6,0,0,0-.61-.76,1.83,1.83,0,0,0-.91-.22,1.93,1.93,0,0,0-1,.23,1.61,1.61,0,0,0-.62.76,4.62,4.62,0,0,0-.34,1.42,19.19,19.19,0,0,0-.11,2.21,18.94,18.94,0,0,0,.11,2.19,5.46,5.46,0,0,0,.34,1.43,1.58,1.58,0,0,0,.62.77,1.78,1.78,0,0,0,.93.23,1.73,1.73,0,0,0,.91-.23,1.66,1.66,0,0,0,.63-.77,5.06,5.06,0,0,0,.35-1.43A16.93,16.93,0,0,0,354.92,374.35Z"/><path class="cls-12" d="M459.83,255.91a11.84,11.84,0,0,1-.36,3.14,6,6,0,0,1-1,2.1,3.82,3.82,0,0,1-1.51,1.16,5.19,5.19,0,0,1-3.8,0,3.58,3.58,0,0,1-1.49-1.15,6,6,0,0,1-1-2.1,12.34,12.34,0,0,1-.35-3.15,13,13,0,0,1,.34-3.26,5.57,5.57,0,0,1,1-2.09,3.57,3.57,0,0,1,1.52-1.1,5.7,5.7,0,0,1,1.95-.32,5.38,5.38,0,0,1,1.86.32,3.61,3.61,0,0,1,1.49,1.1,5.73,5.73,0,0,1,1,2.09A12.44,12.44,0,0,1,459.83,255.91Zm-2.75,0a19.62,19.62,0,0,0-.1-2.23,5.24,5.24,0,0,0-.35-1.42,1.53,1.53,0,0,0-.6-.76,1.86,1.86,0,0,0-.91-.22,1.91,1.91,0,0,0-1,.23,1.56,1.56,0,0,0-.62.76,4.62,4.62,0,0,0-.34,1.42,19.38,19.38,0,0,0-.11,2.22,18.94,18.94,0,0,0,.11,2.19,5.38,5.38,0,0,0,.34,1.42,1.63,1.63,0,0,0,.61.77,1.84,1.84,0,0,0,.94.23,1.76,1.76,0,0,0,.91-.23,1.66,1.66,0,0,0,.63-.77,5,5,0,0,0,.35-1.42A16.93,16.93,0,0,0,457.08,255.91Z"/><path class="cls-12" d="M542.49,322.26a13.72,13.72,0,0,1-.41,3.6,6.57,6.57,0,0,1-1.14,2.39,4.28,4.28,0,0,1-1.73,1.34,5.95,5.95,0,0,1-4.34,0,4.11,4.11,0,0,1-1.71-1.32,7,7,0,0,1-1.11-2.4,13.84,13.84,0,0,1-.4-3.61,15,15,0,0,1,.39-3.73,6.35,6.35,0,0,1,1.12-2.38,3.86,3.86,0,0,1,1.73-1.26,6.42,6.42,0,0,1,2.24-.37,6,6,0,0,1,2.13.37,3.89,3.89,0,0,1,1.7,1.26,6.51,6.51,0,0,1,1.13,2.38A14.51,14.51,0,0,1,542.49,322.26Zm-3.14,0a22.21,22.21,0,0,0-.12-2.55,5.81,5.81,0,0,0-.39-1.63,1.81,1.81,0,0,0-.7-.86,2,2,0,0,0-1-.25,2.21,2.21,0,0,0-1.1.26,1.77,1.77,0,0,0-.72.87,5.72,5.72,0,0,0-.39,1.63,25.15,25.15,0,0,0-.11,2.53,21.74,21.74,0,0,0,.12,2.5,6,6,0,0,0,.39,1.64,1.79,1.79,0,0,0,.7.87,2,2,0,0,0,1.07.27,2,2,0,0,0,1.05-.27,1.93,1.93,0,0,0,.71-.87,6,6,0,0,0,.4-1.64A19.46,19.46,0,0,0,539.35,322.26Z"/><path class="cls-12" d="M82.59,302.18a8.84,8.84,0,0,1-.28,2.42,4.55,4.55,0,0,1-.76,1.61,3,3,0,0,1-1.16.9,3.92,3.92,0,0,1-1.47.27,3.82,3.82,0,0,1-1.45-.27,2.74,2.74,0,0,1-1.15-.89,4.54,4.54,0,0,1-.75-1.61,11.81,11.81,0,0,1,0-4.93,4.33,4.33,0,0,1,.75-1.6,2.7,2.7,0,0,1,1.17-.85A4.44,4.44,0,0,1,79,297a4.18,4.18,0,0,1,1.44.24,2.68,2.68,0,0,1,1.14.85,4.5,4.5,0,0,1,.76,1.6A9.79,9.79,0,0,1,82.59,302.18Zm-2.11,0a16.08,16.08,0,0,0-.08-1.71,4.15,4.15,0,0,0-.26-1.09,1.22,1.22,0,0,0-.47-.58,1.39,1.39,0,0,0-.7-.17,1.53,1.53,0,0,0-.74.17,1.21,1.21,0,0,0-.48.59,3.48,3.48,0,0,0-.26,1.09,13.73,13.73,0,0,0-.08,1.7,13.56,13.56,0,0,0,.08,1.69,3.79,3.79,0,0,0,.26,1.09,1.2,1.2,0,0,0,.47.59,1.37,1.37,0,0,0,.72.18,1.3,1.3,0,0,0,.7-.18,1.16,1.16,0,0,0,.48-.59,3.46,3.46,0,0,0,.27-1.09A13.33,13.33,0,0,0,80.48,302.18Z"/><path class="cls-12" d="M63.24,307.23v-1.56h2.91V299a2,2,0,0,1-.45.57,3.26,3.26,0,0,1-.7.46,4.56,4.56,0,0,1-.88.31,3.82,3.82,0,0,1-1,.11v-1.6a4.28,4.28,0,0,0,1-.12,3.78,3.78,0,0,0,.87-.36,2.9,2.9,0,0,0,.7-.54,3,3,0,0,0,.5-.69h2v8.53h2.41v1.56Z"/><path class="cls-12" d="M88.18,307.23v-1.56h2.91V299a1.79,1.79,0,0,1-.45.57,3.26,3.26,0,0,1-.7.46,4.46,4.46,0,0,1-.87.31,4,4,0,0,1-1,.11v-1.6a4.22,4.22,0,0,0,1-.12,4.06,4.06,0,0,0,.88-.36,3.05,3.05,0,0,0,.69-.54,2.76,2.76,0,0,0,.5-.69h2v8.53h2.42v1.56Z"/><path class="cls-12" d="M57.64,302.18a9.29,9.29,0,0,1-.27,2.42,4.56,4.56,0,0,1-.77,1.61,3,3,0,0,1-1.16.9,4.08,4.08,0,0,1-2.92,0,2.78,2.78,0,0,1-1.14-.89,4.54,4.54,0,0,1-.75-1.61,9.37,9.37,0,0,1-.27-2.43,10.31,10.31,0,0,1,.26-2.5,4.18,4.18,0,0,1,.76-1.6,2.68,2.68,0,0,1,1.16-.85A4.45,4.45,0,0,1,54,297a4.17,4.17,0,0,1,1.43.24,2.68,2.68,0,0,1,1.14.85,4.18,4.18,0,0,1,.76,1.6A9.79,9.79,0,0,1,57.64,302.18Zm-2.11,0a13.8,13.8,0,0,0-.08-1.71,3.79,3.79,0,0,0-.26-1.09,1.22,1.22,0,0,0-.47-.58,1.37,1.37,0,0,0-.7-.17,1.53,1.53,0,0,0-.74.17,1.21,1.21,0,0,0-.48.59,3.79,3.79,0,0,0-.26,1.09,16,16,0,0,0-.08,1.7,15.81,15.81,0,0,0,.08,1.69A4.59,4.59,0,0,0,52.8,305a1.16,1.16,0,0,0,.48.59,1.31,1.31,0,0,0,.71.18,1.34,1.34,0,0,0,.71-.18,1.27,1.27,0,0,0,.48-.59,4.11,4.11,0,0,0,.27-1.09A13.56,13.56,0,0,0,55.53,302.18Z"/><path class="cls-12" d="M38.29,307.23v-1.56H41.2V299a1.75,1.75,0,0,1-.44.57,3.61,3.61,0,0,1-.71.46,4.46,4.46,0,0,1-.87.31,4,4,0,0,1-1,.11v-1.6a4.22,4.22,0,0,0,1-.12,4.06,4.06,0,0,0,.88-.36,3.35,3.35,0,0,0,.7-.54,3,3,0,0,0,.49-.69h2v8.53h2.42v1.56Z"/><path class="cls-12" d="M32.7,302.18a9.25,9.25,0,0,1-.28,2.42,4.39,4.39,0,0,1-.77,1.61,2.88,2.88,0,0,1-1.16.9,4.08,4.08,0,0,1-2.92,0,2.78,2.78,0,0,1-1.14-.89,4.54,4.54,0,0,1-.75-1.61,9.37,9.37,0,0,1-.27-2.43,9.79,9.79,0,0,1,.27-2.5,4.33,4.33,0,0,1,.75-1.6,2.68,2.68,0,0,1,1.16-.85,4.45,4.45,0,0,1,1.5-.24,4.13,4.13,0,0,1,1.43.24,2.65,2.65,0,0,1,1.15.85,4.33,4.33,0,0,1,.75,1.6A9.32,9.32,0,0,1,32.7,302.18Zm-2.11,0a16.08,16.08,0,0,0-.08-1.71,4.11,4.11,0,0,0-.27-1.09,1.21,1.21,0,0,0-.46-.58,1.42,1.42,0,0,0-.7-.17,1.5,1.5,0,0,0-.74.17,1.28,1.28,0,0,0-.49.59,4.15,4.15,0,0,0-.26,1.09,16,16,0,0,0-.08,1.7,13.33,13.33,0,0,0,.09,1.69,3.79,3.79,0,0,0,.26,1.09,1.2,1.2,0,0,0,.47.59,1.33,1.33,0,0,0,.72.18,1.3,1.3,0,0,0,.7-.18,1.22,1.22,0,0,0,.48-.59,4.11,4.11,0,0,0,.27-1.09A13.33,13.33,0,0,0,30.59,302.18Z"/><polygon class="cls-15" points="241.48 349.52 241.48 413 186.51 444.73 131.54 413 131.54 349.52 186.51 317.79 241.48 349.52"/><g class="cls-16"><line class="cls-17" x1="131.54" y1="349.52" x2="186.56" y2="381.28"/><line class="cls-18" x1="186.56" y1="381.28" x2="186.56" y2="454.93"/><line class="cls-17" x1="241.48" y1="349.52" x2="186.56" y2="381.28"/></g><line class="cls-19" x1="184.8" y1="501.44" x2="184.8" y2="464.11"/><line class="cls-19" x1="160.4" y1="481.05" x2="160.4" y2="544.68"/><line class="cls-19" x1="209.2" y1="543.74" x2="209.2" y2="489.34"/><line class="cls-19" x1="184.8" y1="580" x2="184.8" y2="521.83"/></svg>