<svg version="1.1" xmlns="http://www.w3.org/2000/svg" viewBox="0 0 732.1215209960938 378.37181091308594" width="732.1215209960938" height="378.37181091308594">
  <!-- svg-source:excalidraw -->

  <defs>
    <style>
      @font-face {
        font-family: "Virgil";
        src: url("https://excalidraw.com/Virgil.woff2");
      }
      @font-face {
        font-family: "Cascadia";
        src: url("https://excalidraw.com/Cascadia.woff2");
      }
    </style>
  </defs>
  <rect x="0" y="0" width="732.1215209960938" height="378.37181091308594" fill="#ffffff"></rect><g stroke-linecap="round" transform="translate(57.3216552734375 74.86991882324219) rotate(0 170.1036376953125 33.96484375)"><path d="M-1.09 0.02 C83.03 -1.04, 167.4 -1.05, 341.01 -0.66 M-0.23 0.58 C98.84 -2.63, 197.51 -2.55, 339.8 0.41 M339.19 0.03 C338.84 23.24, 341.31 45.82, 338.51 67.68 M339.28 0.3 C340.76 21.53, 340.82 40.87, 341.15 68.43 M338.95 67.2 C268.07 69.49, 196.56 70.65, 0.55 68.74 M340.27 68.38 C213.4 67.94, 87.46 67.4, -0.64 68.21 M1.76 67.53 C1.07 52.45, -0.99 32.71, -1.3 -0.93 M0.97 67.69 C-0.44 53.67, -1.08 37.74, 0.8 0.66" stroke="#000000" stroke-width="1" fill="none"></path></g><g transform="translate(129.81048583984375 82.51876831054688) rotate(0 92.5 25)"><text x="92.5" y="18" font-family="Virgil, Segoe UI Emoji" font-size="20px" fill="#000000" text-anchor="middle" style="white-space: pre;" direction="ltr">config/config.json</text><text x="92.5" y="43" font-family="Virgil, Segoe UI Emoji" font-size="20px" fill="#000000" text-anchor="middle" style="white-space: pre;" direction="ltr">(UI specific config)</text></g><g stroke-linecap="round" transform="translate(56.58160400390625 157.85791015625) rotate(0 175.33514404296875 32.02545166015625)"><path d="M-1.03 -0.85 C76.6 2.19, 154.09 2.42, 350.14 -0.44 M0.41 -0.5 C76.53 -1.74, 153.74 -1.74, 351.22 -0.21 M349.63 0.38 C350.77 21.49, 351.27 43.2, 352.23 65.65 M350.84 0.17 C351.32 19.87, 350.77 39.96, 351.04 63.41 M351.77 63.82 C240.69 65.26, 131.3 64.27, -0.05 62.9 M350.76 64 C279.24 63.25, 206.23 62.13, -0.29 64.1 M-1.25 62.87 C1.35 44.55, -0.25 26.97, 1.13 -0.4 M-0.6 64.06 C-0.33 40.88, -0.92 19.02, 0.27 -0.82" stroke="#000000" stroke-width="1" fill="none"></path></g><g transform="translate(80.04034423828125 164.27499389648438) rotate(0 142 25)"><text x="142" y="18" font-family="Virgil, Segoe UI Emoji" font-size="20px" fill="#000000" text-anchor="middle" style="white-space: pre;" direction="ltr">assets/config/constants.json</text><text x="142" y="43" font-family="Virgil, Segoe UI Emoji" font-size="20px" fill="#000000" text-anchor="middle" style="white-space: pre;" direction="ltr">(shared constants config)</text></g><g stroke-linecap="round"><g transform="translate(426.8377380371094 117.00435544473754) rotate(0 52.1012766204974 -1.0052307042277846)"><path d="M0.19 -0.29 C17.23 -0.58, 85.97 -1.61, 103.08 -1.72 M-1.17 -1.49 C16.18 -1.61, 87.63 -0.1, 105.37 -0.35" stroke="#000000" stroke-width="1" fill="none"></path></g><g transform="translate(426.8377380371094 117.00435544473754) rotate(0 52.1012766204974 -1.0052307042277846)"><path d="M76.63 8.4 C87.03 4.3, 98.84 0.59, 106.44 0.72 M77.45 10.17 C86.88 5.37, 97.32 2.02, 105.44 0.17" stroke="#000000" stroke-width="1" fill="none"></path></g><g transform="translate(426.8377380371094 117.00435544473754) rotate(0 52.1012766204974 -1.0052307042277846)"><path d="M76.75 -12.12 C87.11 -8.62, 98.87 -4.74, 106.44 0.72 M77.57 -10.35 C87.01 -8, 97.41 -4.2, 105.44 0.17" stroke="#000000" stroke-width="1" fill="none"></path></g></g><g stroke-linecap="round" transform="translate(535.7265014648438 77.56977844238281) rotate(0 93.197509765625 38.73036193847656)"><path d="M-0.95 0.26 C64.22 -0.05, 125.61 0.68, 185.83 0.46 M-1 0.97 C45.49 -0.26, 91 0.84, 187.39 -0.62 M184.91 1.02 C186.93 26.02, 187.1 56.47, 186.39 76.13 M185.41 -0.33 C185.2 17.81, 185.96 35.96, 186.36 77.18 M187.09 75.47 C132.96 77.07, 81.47 77.78, -1.7 78.82 M187.33 77.18 C124.96 78.46, 62.62 78.39, -0.1 77.33 M-1.49 78.01 C0.79 45.46, -2.04 15.06, -0.93 -0.29 M0.85 76.61 C0.47 61.04, 0.86 42.76, -0.68 0.32" stroke="#000000" stroke-width="1" fill="none"></path></g><g transform="translate(555.3365478515625 91.15290832519531) rotate(0 71 25)"><text x="71" y="18" font-family="Virgil, Segoe UI Emoji" font-size="20px" fill="#000000" text-anchor="middle" style="white-space: pre;" direction="ltr">app-services-ui</text><text x="71" y="43" font-family="Virgil, Segoe UI Emoji" font-size="20px" fill="#000000" text-anchor="middle" style="white-space: pre;" direction="ltr">components</text></g><g stroke-linecap="round" transform="translate(28.03570556640625 10) rotate(0 198.90101623535156 115.4955062866211)"><path d="M0.94 -0.15 C138.43 -2.5, 279.25 -2.35, 397.55 -0.32 M0.5 0.46 C152.15 0.1, 303.61 0.1, 398.24 0 M396.41 -1.1 C397.4 88.67, 394.9 177.06, 398.63 232.55 M397.36 0.01 C396.86 91.68, 396.83 183.73, 397.81 230.54 M398.64 231.67 C248.84 232.35, 97.05 232.57, 0.34 230.48 M398.09 231.13 C268.88 230.84, 141.09 231.51, -0.55 230.93 M-0.4 231.45 C-1.04 153.85, -1.06 74.97, -1.38 -0.08 M-0.38 230.89 C-0.53 174.69, -0.09 117.27, -0.29 -0.09" stroke="#000000" stroke-width="1" fill="none"></path></g><g transform="translate(38.57501220703125 21.4842529296875) rotate(0 131 12.5)"><text x="0" y="18" font-family="Virgil, Segoe UI Emoji" font-size="20px" fill="#000000" text-anchor="start" style="white-space: pre;" direction="ltr">App Services UI repository</text></g><g stroke-linecap="round" transform="translate(10 288.1699676513672) rotate(0 66.4642333984375 38.73036193847656)"><path d="M-0.37 -1.16 C44.11 -0.93, 89.46 0.14, 132.54 -1.94 M0.15 0.3 C38.15 0.44, 75.26 1.1, 133.85 -0.36 M132.56 -1.18 C131.8 20.07, 132.49 39.7, 132.17 78.97 M133.14 0.47 C131.91 28.65, 133.11 56.62, 133.41 76.84 M131.3 77.87 C92.5 76.46, 47.74 78.48, 1.08 79.39 M132.51 76.72 C92.85 77.17, 51.1 77.95, 0.27 77.5 M0.57 75.66 C0.25 47.8, -0.97 20.14, -1.73 1.17 M0.77 76.68 C-0.15 48.84, -0.89 21.33, -0.05 0.95" stroke="#000000" stroke-width="1" fill="none"></path></g><g transform="translate(34.52349853515625 310.6750793457031) rotate(0 18 12.5)"><text x="0" y="18" font-family="Virgil, Segoe UI Emoji" font-size="20px" fill="#000000" text-anchor="start" style="white-space: pre;" direction="ltr">CLI</text></g><g stroke-linecap="round" transform="translate(150.9019775390625 284.1188507080078) rotate(0 63.565185546875 42.12648010253906)"><path d="M0.21 -0.29 C28.34 -2.32, 54.16 1.3, 127.59 1.62 M-0.53 -0.06 C37.15 1.15, 73.64 -0.55, 126.87 -0.86 M125.75 -0.95 C128.42 20.74, 127.6 40.68, 128.18 82.97 M127.41 -0.27 C126.69 26.34, 126.28 54.75, 127.28 83.93 M128.32 86.2 C101.06 85.85, 72.69 85.36, 0.3 85.47 M126.24 84.7 C84.58 83.49, 41.13 82.82, -0.52 83.8 M0.44 85.13 C-0.84 51.37, 0 19.57, 1.8 -1.66 M0.81 83.39 C1.32 59.22, -0.28 33.92, 0.96 -0.26" stroke="#000000" stroke-width="1" fill="none"></path></g><g transform="translate(190.4327392578125 311.2973327636719) rotate(0 20 12.5)"><text x="0" y="18" font-family="Virgil, Segoe UI Emoji" font-size="20px" fill="#000000" text-anchor="start" style="white-space: pre;" direction="ltr">SDK</text></g><g stroke-linecap="round"><g transform="translate(80.55668790172206 287.1699676513672) rotate(0 14.519962968359835 -33.49595120275393)"><path d="M-0.57 1.13 C4.14 -9.83, 22.61 -54.88, 27.28 -66.25 M1.33 0.68 C6.51 -10.6, 25.43 -57.02, 29.61 -68.12" stroke="#000000" stroke-width="1" fill="none"></path></g><g transform="translate(80.55668790172206 287.1699676513672) rotate(0 14.519962968359835 -33.49595120275393)"><path d="M30.67 -39.35 C29.88 -45.61, 28.71 -50.6, 28.35 -68.34 M29.53 -38.95 C29.92 -50.34, 29.33 -61.96, 30.02 -68.68" stroke="#000000" stroke-width="1" fill="none"></path></g><g transform="translate(80.55668790172206 287.1699676513672) rotate(0 14.519962968359835 -33.49595120275393)"><path d="M11.59 -46.9 C14.94 -51.42, 17.94 -54.76, 28.35 -68.34 M10.45 -46.5 C18.08 -54.99, 24.78 -63.72, 30.02 -68.68" stroke="#000000" stroke-width="1" fill="none"></path></g></g><g stroke-linecap="round"><g transform="translate(219.13096219101158 277.39373779296875) rotate(0 1.492903818744594 -27.585251004612076)"><path d="M-1.08 0.18 C-0.56 -8.74, 1.05 -44.48, 1.93 -53.62 M0.56 -0.76 C1.54 -10.02, 3.48 -46.57, 4.06 -55.35" stroke="#000000" stroke-width="1" fill="none"></path></g><g transform="translate(219.13096219101158 277.39373779296875) rotate(0 1.492903818744594 -27.585251004612076)"><path d="M12.14 -31.09 C11.54 -32.6, 8.26 -40.69, 3.2 -54.39 M12.32 -28.89 C10.51 -36.11, 6.73 -44.4, 3.53 -55.43" stroke="#000000" stroke-width="1" fill="none"></path></g><g transform="translate(219.13096219101158 277.39373779296875) rotate(0 1.492903818744594 -27.585251004612076)"><path d="M-6.45 -32.19 C-3.32 -33.32, -2.86 -41.19, 3.2 -54.39 M-6.27 -30 C-2.64 -36.88, -0.99 -44.85, 3.53 -55.43" stroke="#000000" stroke-width="1" fill="none"></path></g></g><g stroke-linecap="round" transform="translate(292.2216796875 283.3787078857422) rotate(0 63.565185546875 42.12648010253906)"><path d="M-0.67 0.45 C35.1 0.58, 72.93 1.35, 129.09 -1.57 M-0.43 -0.68 C43.26 0.47, 88.46 -0.35, 127.97 -0.14 M129.03 1.7 C125.78 19.76, 125.85 45.22, 128.98 82.66 M127.81 0.45 C126.93 25.47, 126.75 51.21, 127.16 84.91 M127.95 85.55 C84.17 82.5, 40.88 84.55, -1.59 85.96 M127.81 84.03 C96.62 85.76, 67.4 84.59, -0.81 84.88 M0.88 85.92 C-1.66 50.99, 2.01 22.5, -1.3 -0.69 M0.25 84.91 C-1.35 58.56, -0.74 32.16, 0.27 0.73" stroke="#000000" stroke-width="1" fill="none"></path></g><g transform="translate(347.786865234375 313.00518798828125) rotate(0 8 12.5)"><text x="8" y="18" font-family="Virgil, Segoe UI Emoji" font-size="20px" fill="#000000" text-anchor="middle" style="white-space: pre;" direction="ltr">...</text></g><g stroke-linecap="round"><g transform="translate(339.09478228985313 272.43367515036124) rotate(337.02304689369976 3.7851505709860476 -23.026761920652376)"><path d="M-1 1.07 C0.26 -6.59, 7.19 -39.25, 8.57 -47.13 M0.67 0.59 C1.76 -6.84, 7.14 -38.43, 8.08 -46" stroke="#000000" stroke-width="1" fill="none"></path></g><g transform="translate(339.09478228985313 272.43367515036124) rotate(337.02304689369976 3.7851505709860476 -23.026761920652376)"><path d="M14.52 -21.53 C9.87 -32.52, 9.62 -39.35, 8.72 -45.49 M12.54 -22.49 C11.48 -30.64, 9.52 -39.83, 8.15 -45.79" stroke="#000000" stroke-width="1" fill="none"></path></g><g transform="translate(339.09478228985313 272.43367515036124) rotate(337.02304689369976 3.7851505709860476 -23.026761920652376)"><path d="M-1.37 -23.93 C0.04 -33.86, 5.89 -39.77, 8.72 -45.49 M-3.35 -24.88 C1.39 -32.25, 5.25 -40.57, 8.15 -45.79" stroke="#000000" stroke-width="1" fill="none"></path></g></g><g transform="translate(448.48358154296875 81.03712463378906) rotate(0 21.5 12.5)"><text x="21.5" y="18" font-family="Virgil, Segoe UI Emoji" font-size="20px" fill="#000000" text-anchor="middle" style="white-space: pre;" direction="ltr">build</text></g><g transform="translate(125.0499267578125 248.50051879882812) rotate(0 34.5 12.5)"><text x="34.5" y="18" font-family="Virgil, Segoe UI Emoji" font-size="20px" fill="#000000" text-anchor="middle" style="white-space: pre;" direction="ltr">runtime</text></g></svg>
